<?xml version="1.0" encoding="UTF-8" standalone="no"?>
<!-- Created with Inkscape (http://www.inkscape.org/) -->

<svg
   xmlns:dc="http://purl.org/dc/elements/1.1/"
   xmlns:cc="http://creativecommons.org/ns#"
   xmlns:rdf="http://www.w3.org/1999/02/22-rdf-syntax-ns#"
   xmlns:svg="http://www.w3.org/2000/svg"
   xmlns="http://www.w3.org/2000/svg"
   xmlns:sodipodi="http://sodipodi.sourceforge.net/DTD/sodipodi-0.dtd"
   xmlns:inkscape="http://www.inkscape.org/namespaces/inkscape"
   width="210mm"
   height="210mm"
   viewBox="0 0 210 210"
   version="1.1"
   id="svg8"
   inkscape:version="0.92.2 (5c3e80d, 2017-08-06)"
   sodipodi:docname="crimson.svg"
   inkscape:export-filename="C:\Users\katana\Pictures\crimson.logo_128.png"
   inkscape:export-xdpi="61.93"
   inkscape:export-ydpi="61.93">
  <defs
     id="defs2" />
  <sodipodi:namedview
     id="base"
     pagecolor="#ffffff"
     bordercolor="#666666"
     borderopacity="1.0"
     inkscape:pageopacity="0.0"
     inkscape:pageshadow="2"
     inkscape:zoom="0.50000001"
     inkscape:cx="195.72455"
     inkscape:cy="567.27544"
     inkscape:document-units="mm"
     inkscape:current-layer="layer1"
     showgrid="false"
     inkscape:window-width="1540"
     inkscape:window-height="1024"
     inkscape:window-x="825"
     inkscape:window-y="185"
     inkscape:window-maximized="1"
     fit-margin-top="0"
     fit-margin-left="0"
     fit-margin-right="0"
     fit-margin-bottom="0"
     inkscape:object-paths="false"
     inkscape:snap-bbox="true"
     inkscape:snap-object-midpoints="false"
     inkscape:snap-bbox-edge-midpoints="true"
     inkscape:snap-midpoints="true" />
  <metadata
     id="metadata5">
    <rdf:RDF>
      <cc:Work
         rdf:about="">
        <dc:format>image/svg+xml</dc:format>
        <dc:type
           rdf:resource="http://purl.org/dc/dcmitype/StillImage" />
        <dc:title />
      </cc:Work>
    </rdf:RDF>
  </metadata>
  <g
     inkscape:groupmode="layer"
     id="layer2"
     inkscape:label="Layer 2">
    <rect
       style="fill:#ffffff;stroke-width:0.26458332"
       id="rect4382"
       width="210"
       height="209.99998"
       x="-2.8736886e-009"
       y="5.6823092e-007" />
  </g>
  <g
     inkscape:label="Layer 1"
     inkscape:groupmode="layer"
     id="layer1"
     transform="translate(0.26456943,-87.047959)">
    <path
       style="fill:#aa0000;stroke-width:1.45544827"
       d="m -0.26461748,87.047884 c 7.511e-4,26.249576 5.683e-4,52.500536 0.00155,78.750216 V 87.049434 c -4.334e-4,-4.4e-4 -0.00113,-8.4e-4 -0.00155,-0.002 z m 210.00009748,0 c -17.50035,17.500446 -35.00084,35.000756 -52.50118,52.501166 -1.8e-4,-1.6e-4 -3.5e-4,-3.4e-4 -5.2e-4,-5e-4 -17.49978,17.49962 -34.99934,34.9995 -52.49912,52.49913 2.6e-4,2.3e-4 2.6e-4,7.6e-4 5.1e-4,10e-4 -17.49971,17.49951 -34.999397,34.99905 -52.499116,52.49859 17.499936,17.50018 34.999702,35.00052 52.499636,52.50067 34.99993,-34.99991 69.99986,-69.99989 104.99979,-104.99979 -17.4997,-17.49989 -34.99941,-34.99975 -52.49912,-52.49963 17.49971,-17.49986 34.99942,-34.99977 52.49912,-52.499636 z M 52.23502,139.54855 C 34.735161,157.04825 17.235264,174.54797 -0.26461748,192.04768 17.235264,209.54738 34.735161,227.04708 52.23502,244.54678 69.734823,227.04715 87.234348,209.54727 104.73414,192.04768 87.234348,174.54805 69.734823,157.04814 52.23502,139.54855 Z"
       id="rect3699-7-2-8-9-0"
       inkscape:connector-curvature="0" />
    <path
       style="fill:#960000;fill-opacity:1;stroke-width:1.45544791"
       d="m 157.23384,139.54758 c -17.49987,17.49971 -34.99977,34.99941 -52.49964,52.49912 17.49988,17.4997 34.99978,34.99941 52.49964,52.49912 17.49989,-17.49971 34.99974,-34.99942 52.49963,-52.49912 -17.49987,-17.49971 -34.99975,-34.99941 -52.49963,-52.49912 z"
       id="rect3699-7-1-0-9-5-2"
       inkscape:connector-curvature="0" />
    <path
       style="fill:#960000;fill-opacity:1;stroke-width:1.45544791"
       d="m 52.235071,139.54884 c -17.49986,17.4997 -34.99976,34.99941 -52.49964043,52.49911 17.49988043,17.4997 34.99978043,34.99942 52.49964043,52.49913 17.49989,-17.49971 34.99976,-34.99943 52.499639,-52.49913 -17.499879,-17.4997 -34.999749,-34.99941 -52.499639,-52.49911 z"
       id="rect3699-7-1-0-9-5-2-4-0"
       inkscape:connector-curvature="0" />
    <path
       style="fill:#710000;fill-opacity:1;stroke-width:1.45544791"
       d="M -194.8046,-28.30988 V 76.688358 c 0,0 0,5.2e-4 0,5.2e-4 0,0 5e-4,0 5e-4,0 H -89.80585 15.19239 c 0,0 5.2e-4,0 5.2e-4,0 V 76.688358 -28.30988 C -2.30681,-10.809992 -19.80651,6.689918 -37.30621,24.189758 h -104.99927 c -17.49971,-17.49986 -34.99942,-34.99976 -52.49912,-52.499638 z"
       id="rect3699-7-1-0-9-5-2-4-4-6-1-5-6"
       inkscape:connector-curvature="0" />
    <path
       inkscape:connector-curvature="0"
       id="rect3699-7-1-0-9-5-2-4-4-2-9"
       d="m 67.692544,76.688369 c 17.49986,-17.49971 34.999736,-34.99942 52.499626,-52.49913 -34.999766,0 -69.99952,0 -104.99926,0 17.49988,17.49971 34.99974,34.99942 52.499634,52.49913 z"
       style="fill:#630000;fill-opacity:1;stroke-width:1.45544791" />
    <path
       style="fill:#710000;fill-opacity:1;stroke-width:1.45544791"
       d="m -0.2645536,87.047944 v 104.998236 5.2e-4 H -0.26403767 104.7342 C 87.234305,174.54699 69.734446,157.04729 52.234566,139.54758 34.734857,122.04772 17.235147,104.54783 -0.2645536,87.047944 Z M 104.7342,192.0467 h 104.99824 5.2e-4 v -5.2e-4 -104.998236 c -17.49973,17.499886 -34.99942,34.999796 -52.49912,52.499636 -17.49989,17.49971 -34.99978,34.99941 -52.49964,52.49912 z"
       id="rect3699-7-1-0-9-5-2-4-4-6-1-5-6-1"
       inkscape:connector-curvature="0" />
    <path
       inkscape:connector-curvature="0"
       id="rect3699-7-1-0-9-5-2-4-4-2"
       d="m 157.23383,139.54732 c 17.49971,-17.49986 34.99942,-34.99974 52.49913,-52.499623 0,34.999763 0,69.999513 0,104.999253 -17.49971,-17.49988 -34.99942,-34.99974 -52.49913,-52.49963 z"
       style="fill:#630000;fill-opacity:1;stroke-width:1.45544791" />
    <path
       inkscape:connector-curvature="0"
       id="rect3699-7-1-0-9-5-2-4-4-6"
       d="m 52.234576,139.54733 c -17.49971,-17.49987 -34.99942,-34.99975 -52.4991303,-52.49964 0,34.99977 0,69.99953 0,104.99927 C 17.235156,174.54708 34.734866,157.04722 52.234576,139.54733 Z"
       style="fill:#630000;fill-opacity:1;stroke-width:1.45544791" />
  </g>
</svg>
