<?xml version="1.0" encoding="UTF-8" standalone="no"?>
<!-- Created with Inkscape (http://www.inkscape.org/) -->

<svg
   xmlns:dc="http://purl.org/dc/elements/1.1/"
   xmlns:cc="http://creativecommons.org/ns#"
   xmlns:rdf="http://www.w3.org/1999/02/22-rdf-syntax-ns#"
   xmlns:svg="http://www.w3.org/2000/svg"
   xmlns="http://www.w3.org/2000/svg"
   xmlns:sodipodi="http://sodipodi.sourceforge.net/DTD/sodipodi-0.dtd"
   xmlns:inkscape="http://www.inkscape.org/namespaces/inkscape"
   width="210mm"
   height="210mm"
   viewBox="0 0 210 210"
   version="1.1"
   id="svg8"
   inkscape:version="0.92.2 (5c3e80d, 2017-08-06)"
   sodipodi:docname="crimson_rounded.svg"
   inkscape:export-filename="C:\Users\katana\Pictures\crimson\crimson-rounded.logo_1024.png"
   inkscape:export-xdpi="123.86"
   inkscape:export-ydpi="123.86">
  <defs
     id="defs2" />
  <sodipodi:namedview
     id="base"
     pagecolor="#ffffff"
     bordercolor="#666666"
     borderopacity="1.0"
     inkscape:pageopacity="0.0"
     inkscape:pageshadow="2"
     inkscape:zoom="0.125"
     inkscape:cx="-681.05664"
     inkscape:cy="2082.751"
     inkscape:document-units="mm"
     inkscape:current-layer="layer1"
     showgrid="false"
     inkscape:window-width="2560"
     inkscape:window-height="1361"
     inkscape:window-x="-9"
     inkscape:window-y="-9"
     inkscape:window-maximized="1"
     fit-margin-top="0"
     fit-margin-left="0"
     fit-margin-right="0"
     fit-margin-bottom="0"
     inkscape:object-paths="false"
     inkscape:snap-bbox="true"
     inkscape:snap-object-midpoints="false"
     inkscape:snap-bbox-edge-midpoints="true"
     inkscape:snap-midpoints="true" />
  <metadata
     id="metadata5">
    <rdf:RDF>
      <cc:Work
         rdf:about="">
        <dc:format>image/svg+xml</dc:format>
        <dc:type
           rdf:resource="http://purl.org/dc/dcmitype/StillImage" />
        <dc:title></dc:title>
      </cc:Work>
    </rdf:RDF>
  </metadata>
  <g
     inkscape:groupmode="layer"
     id="layer2"
     inkscape:label="Layer 2">
    <rect
       style="fill:#ffffff;stroke-width:0.26458332"
       id="rect4382"
       width="210"
       height="209.99998"
       x="243.21402"
       y="195.69623" />
    <circle
       style="fill:#ffffff;fill-opacity:1;stroke:none;stroke-width:0.26458332;stroke-opacity:1"
       id="path4704"
       cx="-171.5183"
       cy="93.02507"
       r="104.99726" />
  </g>
  <g
     inkscape:label="Layer 1"
     inkscape:groupmode="layer"
     id="layer1"
     transform="translate(0.26456943,-87.047959)">
    <path
       style="fill:#aa0000;stroke-width:1.45544827"
       d="m -0.26461748,87.047884 c 7.511e-4,26.249576 5.683e-4,52.500536 0.00155,78.750216 V 87.049434 c -4.334e-4,-4.4e-4 -0.00113,-8.4e-4 -0.00155,-0.002 z m 210.00009748,0 c -17.50035,17.500446 -35.00084,35.000756 -52.50118,52.501166 -1.8e-4,-1.6e-4 -3.5e-4,-3.4e-4 -5.2e-4,-5e-4 -17.49978,17.49962 -34.99934,34.9995 -52.49912,52.49913 2.6e-4,2.3e-4 2.6e-4,7.6e-4 5.1e-4,10e-4 -17.49971,17.49951 -34.999397,34.99905 -52.499116,52.49859 17.499936,17.50018 34.999702,35.00052 52.499636,52.50067 34.99993,-34.99991 69.99986,-69.99989 104.99979,-104.99979 -17.4997,-17.49989 -34.99941,-34.99975 -52.49912,-52.49963 17.49971,-17.49986 34.99942,-34.99977 52.49912,-52.499636 z M 52.23502,139.54855 C 34.735161,157.04825 17.235264,174.54797 -0.26461748,192.04768 17.235264,209.54738 34.735161,227.04708 52.23502,244.54678 69.734823,227.04715 87.234348,209.54727 104.73414,192.04768 87.234348,174.54805 69.734823,157.04814 52.23502,139.54855 Z"
       id="rect3699-7-2-8-9-0"
       inkscape:connector-curvature="0" />
    <path
       style="fill:#960000;fill-opacity:1;stroke-width:1.45544791"
       d="m 157.23384,139.54758 c -17.49987,17.49971 -34.99977,34.99941 -52.49964,52.49912 17.49988,17.4997 34.99978,34.99941 52.49964,52.49912 17.49989,-17.49971 34.99974,-34.99942 52.49963,-52.49912 -17.49987,-17.49971 -34.99975,-34.99941 -52.49963,-52.49912 z"
       id="rect3699-7-1-0-9-5-2"
       inkscape:connector-curvature="0" />
    <path
       style="fill:#960000;fill-opacity:1;stroke-width:1.45544791"
       d="m 52.235071,139.54884 c -17.49986,17.4997 -34.99976,34.99941 -52.49964043,52.49911 17.49988043,17.4997 34.99978043,34.99942 52.49964043,52.49913 17.49989,-17.49971 34.99976,-34.99943 52.499639,-52.49913 -17.499879,-17.4997 -34.999749,-34.99941 -52.499639,-52.49911 z"
       id="rect3699-7-1-0-9-5-2-4-0"
       inkscape:connector-curvature="0" />
    <path
       style="fill:#710000;fill-opacity:1;stroke-width:1.45544791"
       d="m 30.535084,117.84784 a 105.00127,104.99781 0 0 0 -30.79914005,74.14793 v 0.0517 C 17.235644,174.54756 34.735344,157.0477 52.235071,139.54781 45.001786,132.31446 37.768395,125.0812 30.535084,117.84784 Z m -30.79914005,74.1996 5.2917e-4,5.2e-4 H 104.7347 209.73294 c -0.0447,-0.0447 -0.0897,-0.0891 -0.13436,-0.13384 0,0 0,-5.2e-4 0,-5.2e-4 a 105.00127,104.99782 0 0 0 -30.72939,-74.00013 c -7.21175,7.21182 -14.42362,14.42355 -21.63537,21.63537 h -5.2e-4 c -17.49953,17.49971 -34.99907,34.9989 -52.4986,52.4986 -17.499792,-17.49962 -34.999847,-34.99898 -52.499629,-52.4986 -17.499621,17.4998 -34.999506,34.99881 -52.49912705,52.4986 z"
       id="rect3699-7-1-0-9-5-2-4-4-6-1-5-6-1"
       inkscape:connector-curvature="0" />
    <path
       style="fill:#630000;fill-opacity:1;stroke-width:1.45544791"
       d="m 179.00356,117.94758 c -7.21175,7.21182 -14.42362,14.42355 -21.63537,21.63537 17.45492,17.45511 34.90984,34.91019 52.36476,52.36528 a 105.00127,104.99782 0 0 0 -30.72939,-74.00065 z"
       id="rect3699-7-1-0-9-5-2-4-4-2-9"
       inkscape:connector-curvature="0" />
    <path
       style="fill:#630000;fill-opacity:1;stroke-width:1.45544791"
       d="m 30.535086,117.84782 a 105.00127,104.99781 0 0 0 -30.79913996,74.14793 v 0.0517 C 17.235646,174.54757 34.735346,157.0477 52.235066,139.54781 45.001776,132.31446 37.768396,125.0812 30.535086,117.84784 Z"
       id="rect3699-7-1-0-9-5-2-4-4-6-4-6"
       inkscape:connector-curvature="0" />
  </g>
</svg>
